<?xml version="1.0" encoding="utf-8"?>
<!-- Generator: Adobe Illustrator 24.1.2, SVG Export Plug-In . SVG Version: 6.00 Build 0)  -->
<svg version="1.1" id="图层_1" xmlns="http://www.w3.org/2000/svg" xmlns:xlink="http://www.w3.org/1999/xlink" x="0px" y="0px"
	 width="18px" height="18px" viewBox="0 0 18 18" style="enable-background:new 0 0 18 18;" xml:space="preserve">
<style type="text/css">
	.st0{fill:#E1AF74;}
</style>
<g>
	<g>
		<path class="st0" d="M8.4,1.1c0,0,0-0.6,0.6-0.6c0.7,0,0.6,0.6,0.6,0.6v0.6c0,0,8.4,0.2,8.4,7.5v0c0,0-0.8-1.7-3-1.7
			c-2.5,0-3,1.8-3,1.8s-0.5-1.8-3-1.8c0,0-2.4-0.2-3,1.7c0,0-0.3-1.7-3-1.7c0,0-2.2-0.1-3,1.8c0,0,1.3-7.7,8.4-7.6L8.4,1.1L8.4,1.1z
			 M8.4,1.1"/>
		<path class="st0" d="M8.4,8.1h1.2v7c0,0,0,2.3-2.4,2.3c0,0-2.4,0-2.4-2.3c0,0,0-0.6,0.6-0.6c0.6,0,0.6,0.6,0.6,0.6
			S6,16.3,7.2,16.3c0,0,1.2,0,1.2-1.2L8.4,8.1L8.4,8.1z M8.4,8.1"/>
	</g>
</g>
</svg>
